<svg version="1.1" xmlns="http://www.w3.org/2000/svg" xmlns:xlink="http://www.w3.org/1999/xlink" width="122.879px" height="88.855px" viewBox="0,0,256,185.10938"><g fill="#d0d0d0" fill-rule="nonzero" stroke="none" stroke-width="1" stroke-linecap="butt" stroke-linejoin="miter" stroke-miterlimit="10" stroke-dasharray="" stroke-dashoffset="0" font-family="none" font-weight="none" font-size="none" text-anchor="none" style="mix-blend-mode: normal"><g transform="translate(0,-0.0044) scale(2.08335,2.08335)"><g><path d="M7.048,0h108.784c1.939,0 3.701,0.794 4.977,2.069c1.277,1.277 2.07,3.042 2.07,4.979v74.759c0,1.461 -0.451,2.822 -1.221,3.951c-0.141,0.365 -0.361,0.705 -0.662,0.994c-0.201,0.189 -0.422,0.344 -0.656,0.461c-1.225,1.021 -2.799,1.643 -4.508,1.643h-108.784c-1.937,0 -3.701,-0.793 -4.979,-2.07c-1.275,-1.276 -2.069,-3.038 -2.069,-4.979v-74.759c0,-1.941 0.792,-3.704 2.068,-4.979c1.276,-1.277 3.039,-2.069 4.98,-2.069zM5.406,78.842l38.124,-38.22l-38.124,-31.084v69.304zM47.729,44.045l-39.305,39.404h105.701l-37.562,-39.398l-12.383,10.551v0c-0.971,0.83 -2.425,0.877 -3.453,0.043l-12.998,-10.6zM80.674,40.549l36.799,38.598v-69.949l-36.799,31.351zM8.867,5.406l53.521,43.639l51.223,-43.639h-104.744z"></path></g></g></g></svg>