<svg version="1.1" xmlns="http://www.w3.org/2000/svg" xmlns:xlink="http://www.w3.org/1999/xlink" width="121.699px" height="122.88px" viewBox="0,0,253.53125,256"><g fill="#b5b0b1" fill-rule="nonzero" stroke="none" stroke-width="1" stroke-linecap="butt" stroke-linejoin="miter" stroke-miterlimit="10" stroke-dasharray="" stroke-dashoffset="0" font-family="none" font-weight="none" font-size="none" text-anchor="none" style="mix-blend-mode: normal"><g transform="translate(-0.00417,0) scale(2.08333,2.08333)"><g><path d="M53.611,0c14.793,0 28.204,6.02 37.92,15.695c9.717,9.712 15.695,23.09 15.695,37.916c0,10.818 -3.227,20.928 -8.732,29.345l23.205,25.292l-16.01,14.632l-22.38,-24.621c-8.496,5.663 -18.723,8.967 -29.698,8.967c-14.789,0 -28.203,-6.02 -37.915,-15.695c-9.718,-9.718 -15.696,-23.091 -15.696,-37.92c0,-14.789 6.02,-28.204 15.696,-37.916c9.712,-9.717 23.09,-15.695 37.915,-15.695zM37.86,33.543c7.811,-8.621 16.833,-13.309 23.593,-5.641c1.777,0.083 3.359,0.671 4.684,1.92c2.785,2.619 3.215,7.51 1.943,11.396v3.392c0.861,0.564 1.42,1.629 1.67,2.837c0.166,0.777 0.209,1.638 0.125,2.457c-0.082,0.847 -0.291,1.656 -0.629,2.327c-0.48,0.958 -1.217,1.629 -2.217,1.777c-0.977,1.041 -1.93,2.151 -2.781,3.225c-0.934,1.176 -1.734,2.286 -2.291,3.202c-0.43,0.703 -0.291,1.166 -0.133,1.688c0.074,0.265 0.156,0.537 0.209,0.833c1.711,0.366 3.256,0.662 4.641,0.921c8.809,1.652 11.553,2.166 11.553,13.632c0,0.588 -0.477,1.061 -1.063,1.061h-43.686c-0.588,0 -1.06,-0.473 -1.06,-1.061c0,-11.466 2.729,-11.979 11.554,-13.632c1.393,-0.259 2.961,-0.555 4.669,-0.921c0.064,-0.231 0.139,-0.443 0.213,-0.652c0.176,-0.504 0.356,-1.008 -0.167,-1.86c-0.56,-0.912 -1.356,-2.026 -2.291,-3.202c-0.852,-1.069 -1.81,-2.184 -2.786,-3.225c-0.994,-0.148 -1.73,-0.819 -2.211,-1.772c-0.337,-0.661 -0.546,-1.48 -0.634,-2.332c-0.07,-0.819 -0.028,-1.68 0.129,-2.457c0.25,-1.208 0.796,-2.258 1.647,-2.827l-1.143,-0.681c-0.306,-3.392 0.588,-9.282 -3.553,-10.397l0.015,-0.008zM65.971,40.316c-0.191,-1.397 -0.557,-2.573 -1.07,-3.549c-0.66,-0.833 -1.629,-1.536 -2.877,-2.448l-0.139,-0.106c-0.26,-0.189 -0.523,-0.379 -0.797,-0.545c-4.178,2.711 -6.205,2.077 -9.578,2.637c-3.054,0.505 -5.534,1.638 -6.834,3.716v5.271c0,0.504 -0.347,0.925 -0.819,1.032c-0.421,0.125 -0.735,0.764 -0.907,1.564c-0.125,0.578 -0.157,1.217 -0.093,1.828c0.051,0.588 0.19,1.133 0.412,1.564c0.199,0.389 0.449,0.652 0.745,0.652h0.06c0.305,0 0.587,0.125 0.777,0.324c1.125,1.175 2.226,2.447 3.193,3.665c0.977,1.217 1.828,2.416 2.439,3.424c1.036,1.704 0.689,2.68 0.356,3.642c-0.097,0.287 -0.199,0.56 -0.199,0.833c0,0.531 -0.403,0.976 -0.902,1.05c-2.041,0.458 -3.813,0.787 -5.376,1.079c-7.219,1.355 -9.643,1.809 -9.81,10.503h41.562c-0.166,-8.694 -2.592,-9.147 -9.805,-10.503c-1.588,-0.292 -3.393,-0.63 -5.461,-1.102c-0.495,-0.107 -0.818,-0.546 -0.818,-1.027c0,-0.412 -0.107,-0.769 -0.204,-1.115c-0.291,-0.985 -0.546,-1.87 0.361,-3.36c0.606,-1.008 1.466,-2.207 2.433,-3.424c0.969,-1.217 2.068,-2.489 3.193,-3.655c0.223,-0.241 0.537,-0.347 0.842,-0.324h0.01c0.291,-0.009 0.545,-0.264 0.744,-0.652c0.223,-0.431 0.357,-0.977 0.412,-1.564c0.061,-0.611 0.02,-1.25 -0.096,-1.828c-0.168,-0.81 -0.482,-1.458 -0.926,-1.573c-0.482,-0.125 -0.797,-0.56 -0.797,-1.032v-4.965l-0.031,-0.012zM87.283,19.943c-8.615,-8.616 -20.531,-13.965 -33.672,-13.965c-13.137,0 -25.057,5.349 -33.667,13.965c-8.616,8.61 -13.965,20.531 -13.965,33.667c0,13.141 5.35,25.056 13.965,33.672c8.611,8.615 20.531,13.965 33.667,13.965c13.141,0 25.057,-5.35 33.672,-13.965c8.615,-8.616 13.965,-20.531 13.965,-33.672c0,-13.136 -5.35,-25.056 -13.965,-33.667v0z"></path></g></g></g></svg>