<svg version="1.1" xmlns="http://www.w3.org/2000/svg" xmlns:xlink="http://www.w3.org/1999/xlink" width="122.88px" height="116.68px" viewBox="0,0,256,243.07813"><g fill="#b5b0b1" fill-rule="nonzero" stroke="none" stroke-width="1" stroke-linecap="butt" stroke-linejoin="miter" stroke-miterlimit="10" stroke-dasharray="" stroke-dashoffset="0" font-family="none" font-weight="none" font-size="none" text-anchor="none" style="mix-blend-mode: normal"><g transform="translate(0,-0.01302) scale(2.08333,2.08333)"><g><path d="M69.53,91.55l13.23,13.23c3.2,0.09 5.77,2.72 5.77,5.95c0,3.29 -2.66,5.95 -5.95,5.95c-3.29,0 -5.95,-2.67 -5.95,-5.95c0,-0.36 0.03,-0.72 0.09,-1.07l-11.51,-11.5v8.46h-8.24v-8.23l-11.69,11.7c0.02,0.21 0.03,0.43 0.03,0.65v0c0,3.29 -2.66,5.95 -5.96,5.95c-3.29,0 -5.95,-2.67 -5.95,-5.95c0,-3.29 2.67,-5.95 5.95,-5.95c0.1,0 0.2,0 0.29,0.01l13.23,-13.23l-52.87,-0.02v-75.84c0,-0.05 0,-0.09 0,-0.14v-8.05c0,-0.87 0.72,-1.57 1.61,-1.57h55.36v-5.95h8.24v5.95h56.06c0.89,0 1.61,0.71 1.61,1.57v8.05c0,0.03 0,0.05 0,0.08v75.89h-53.35zM26.89,62.71l23.26,-22.74c5.76,5.76 11.46,11.46 17.28,17.21l15.41,-15.6l-7.15,-7.15l20.12,-0.18v20.29l-6.87,-6.87c-7.16,7.25 -14.29,14.48 -21.47,21.67l-17.44,-17.22l-17.04,16.69l-6.1,-6.1v0zM113.79,21.73h-104.87v60.64h104.87v-60.64z"></path></g></g></g></svg>