<svg version="1.1" xmlns="http://www.w3.org/2000/svg" xmlns:xlink="http://www.w3.org/1999/xlink" width="122.883px" height="122.882px" viewBox="0,0,256,255.98438"><g fill="#722f37" fill-rule="nonzero" stroke="none" stroke-width="1" stroke-linecap="butt" stroke-linejoin="miter" stroke-miterlimit="10" stroke-dasharray="" stroke-dashoffset="0" font-family="none" font-weight="none" font-size="none" text-anchor="none" style="mix-blend-mode: normal"><g transform="translate(0,-0.00573) scale(2.08328,2.08328)"><g><path d="M0,61.441c0,-16.966 6.877,-32.327 17.996,-43.445c11.119,-11.119 26.479,-17.996 43.445,-17.996c16.967,0 32.327,6.877 43.446,17.996c11.119,11.119 17.996,26.479 17.996,43.445c0,16.966 -6.877,32.326 -17.996,43.445c-11.119,11.118 -26.479,17.995 -43.446,17.995c-16.966,0 -32.326,-6.877 -43.445,-17.995c-11.119,-11.118 -17.996,-26.479 -17.996,-43.445zM42.166,51.505c-1.784,-1.735 -4.637,-1.695 -6.373,0.088c-1.735,1.784 -1.695,4.637 0.088,6.372l22.521,21.839l3.142,-3.23l-3.146,3.244c1.792,1.737 4.652,1.693 6.391,-0.099c0.049,-0.052 0.098,-0.104 0.145,-0.158l22.084,-21.596c1.783,-1.735 1.822,-4.588 0.088,-6.372c-1.736,-1.784 -4.588,-1.823 -6.373,-0.088l-19.202,18.779l-19.365,-18.779zM24.386,24.386c-9.483,9.483 -15.348,22.584 -15.348,37.055c0,14.471 5.865,27.572 15.349,37.055c9.482,9.483 22.583,15.349 37.055,15.349c14.472,0 27.573,-5.865 37.055,-15.349c9.484,-9.482 15.35,-22.584 15.35,-37.055c0,-14.472 -5.865,-27.573 -15.35,-37.056c-9.483,-9.482 -22.585,-15.347 -37.056,-15.347c-14.471,0 -27.572,5.865 -37.055,15.348z"></path></g></g></g></svg>