<svg version="1.1" xmlns="http://www.w3.org/2000/svg" xmlns:xlink="http://www.w3.org/1999/xlink" width="122.88px" height="94.65px" viewBox="0,0,256,197.1875"><g fill="#b5b0b1" fill-rule="evenodd" stroke="none" stroke-width="1" stroke-linecap="butt" stroke-linejoin="miter" stroke-miterlimit="10" stroke-dasharray="" stroke-dashoffset="0" font-family="none" font-weight="none" font-size="none" text-anchor="none" style="mix-blend-mode: normal"><g transform="translate(0.02175,0.00347) scale(2.08333,2.08333)"><path d="M21.92,0c4.19205,-0.00404 7.97338,2.51861 9.57947,6.39078c1.6061,3.87217 0.72037,8.33062 -2.24385,11.29484c-2.96423,2.96423 -7.42267,3.84995 -11.29484,2.24385c-3.87217,-1.6061 -6.39482,-5.38743 -6.39078,-9.57947c0,-5.71615 4.63385,-10.35 10.35,-10.35zM14.61,22.7l3.68,9.65h0.39l1.79,-6.18l-1,-1.05c-0.72,-1.05 -0.47,-2.25 0.87,-2.47c0.48268,-0.03541 0.96732,-0.03541 1.45,0c0.5307,-0.03054 1.06311,-0.01045 1.59,0.06c1.24,0.28 1.37,1.48 0.75,2.44l-1,1.05l1.87,6.15h0.38l3.32,-9.65c0.14833,0.13358 0.30534,0.25718 0.47,0.37c0.9537,0.08641 1.87779,0.37626 2.71,0.85c1.22484,0.24443 2.30328,0.9634 3,2l7.9,10.91l5.63,1.08v-21.24h-8c-1.02725,0 -1.86,-0.83275 -1.86,-1.86c0,-1.02725 0.83275,-1.86 1.86,-1.86h37.15v-5.43c0.0716,-0.97713 0.88525,-1.73334 1.865,-1.73334c0.97975,0 1.7934,0.75621 1.865,1.73334v5.48h39.53c1.02725,0 1.86,0.83275 1.86,1.86c0,1.02725 -0.83275,1.86 -1.86,1.86h-7.93v46.01h8.11c1.02725,0 1.86,0.83275 1.86,1.86c0,1.02725 -0.83275,1.86 -1.86,1.86h-39.45v8.55c0.0823,0.07216 0.16915,0.13896 0.26,0.2l11.62,11c0.52954,0.44115 0.76995,1.1401 0.62382,1.81365c-0.14614,0.67355 -0.65458,1.21003 -1.31934,1.39206c-0.66475,0.18203 -1.37558,-0.02057 -1.84448,-0.52571l-9.34,-8.88v8c-0.0716,0.97713 -0.88525,1.73334 -1.865,1.73334c-0.97975,0 -1.7934,-0.75621 -1.865,-1.73334v-8.32l-9.69,9.21c-0.35505,0.34149 -0.8322,0.52634 -1.32465,0.51319c-0.49244,-0.01316 -0.95905,-0.22323 -1.29535,-0.58319c-0.34348,-0.35204 -0.52986,-0.82812 -0.51667,-1.3198c0.01319,-0.49167 0.22481,-0.95708 0.58667,-1.2902l11.62,-11v0c0.17607,-0.17326 0.38759,-0.30631 0.62,-0.39v-8.37h-37.45c-1.02725,0 -1.86,-0.83275 -1.86,-1.86c0,-1.02725 0.83275,-1.86 1.86,-1.86h8v-14.9l-9.27,-1.83c-1.2395,-0.21036 -2.34999,-0.89099 -3.1,-1.9l-3.93,-5.45v0.14l-0.32,15.78l4,25.24l1.51,8.65c0.85,5.78 -8,9.21 -10.19,1.62l-5.16,-30.42l-5.25,30.91c-1,5.59 -10.13,5.64 -10.19,-1.15l5.79,-34.65l-0.44,-18.71c-0.49323,0.60426 -0.89424,1.27824 -1.19,2c-0.61667,1.45074 -0.95587,3.00425 -1,4.58l-0.8,10.91c-0.44,5.7 -8.93,6.05 -8.83,-0.1c0.05,-2.76 0.3,-5.54 0.6,-8.37c0.58,-5.42 0.7,-8.78 3.79,-14.18c1.15689,-2.00571 2.6839,-3.77366 4.5,-5.21c1.43172,-1.13012 3.0997,-1.92309 4.88,-2.32c0.29616,-0.20228 0.57693,-0.42622 0.84,-0.67zM52.13,38.26l10.46,-11c0.59905,-0.6745 1.51818,-0.96877 2.39759,-0.7676c0.8794,0.20117 1.57919,0.86577 1.82541,1.73363c0.24623,0.86787 -0.00027,1.80094 -0.643,2.43396l-9.84,10.34c0.93569,1.51452 0.97437,3.41788 0.101,4.96917c-0.87338,1.55128 -2.52081,2.50536 -4.301,2.49083v14.27h57.07v-46.06h-57.07z"></path></g></g></svg>