<svg version="1.1" xmlns="http://www.w3.org/2000/svg" xmlns:xlink="http://www.w3.org/1999/xlink" width="237.54px" height="237.54px" viewBox="0,0,256,256"><g fill="#d0d0d0" fill-rule="nonzero" stroke="none" stroke-width="1" stroke-linecap="butt" stroke-linejoin="miter" stroke-miterlimit="10" stroke-dasharray="" stroke-dashoffset="0" font-family="none" font-weight="none" font-size="none" text-anchor="none" style="mix-blend-mode: normal"><g transform="scale(1.07771,1.07771)"><g><path d="M118.77,0c32.8,0 62.49,13.29 83.98,34.79c21.49,21.49 34.79,51.19 34.79,83.98c0,32.79 -13.29,62.49 -34.79,83.98c-21.49,21.49 -51.19,34.79 -83.98,34.79c-32.8,0 -62.49,-13.29 -83.98,-34.79c-21.5,-21.49 -34.79,-51.19 -34.79,-83.98c0,-32.79 13.29,-62.49 34.79,-83.98c21.49,-21.5 51.18,-34.79 83.98,-34.79zM109.06,60.2c0,-3.59 2.91,-6.5 6.5,-6.5c3.59,0 6.5,2.91 6.5,6.5v60l45.14,26.76c3.08,1.82 4.11,5.8 2.29,8.89c-1.82,3.08 -5.8,4.11 -8.89,2.29l-47.99,-28.45c-2.11,-1.08 -3.55,-3.27 -3.55,-5.79v-63.7zM193.56,43.98c-19.14,-19.14 -45.58,-30.98 -74.79,-30.98c-29.21,0 -55.65,11.84 -74.79,30.98c-19.14,19.14 -30.98,45.58 -30.98,74.79c0,29.21 11.84,55.65 30.98,74.79c19.14,19.14 45.58,30.98 74.79,30.98c29.21,0 55.65,-11.84 74.79,-30.98c19.14,-19.14 30.98,-45.58 30.98,-74.79c0,-29.21 -11.84,-55.65 -30.98,-74.79z"></path></g></g></g></svg>