<svg version="1.1" xmlns="http://www.w3.org/2000/svg" xmlns:xlink="http://www.w3.org/1999/xlink" width="113.98px" height="122.88px" viewBox="0,0,237.45313,256"><g fill="#722f37" fill-rule="evenodd" stroke="none" stroke-width="1" stroke-linecap="butt" stroke-linejoin="miter" stroke-miterlimit="10" stroke-dasharray="" stroke-dashoffset="0" font-family="none" font-weight="none" font-size="none" text-anchor="none" style="mix-blend-mode: normal"><g transform="translate(-0.02949,0.01553) scale(2.08333,2.08333)"><g><path d="M79.21,84.71c-0.84,-0.76 -1.98,-1.74 -3.18,-2.78c-2.61,-2.24 -5.51,-4.73 -6.86,-6.42l-0.13,0.09c-2.76,1.89 -6.17,3.15 -10.83,3.14c-4.35,-0.01 -7.62,-1.22 -10.31,-3.01c-0.66,-0.44 -1.27,-0.91 -1.86,-1.4c-1.33,1.74 -4.59,4.51 -7.49,6.97c-1.77,1.5 -3.4,2.88 -4.26,3.72c-3,3.75 -5.65,7.75 -7.88,12.22l9.23,-0.23l21.23,18.46l21.23,-18.46l9.23,0.23c-2.28,-4.6 -5.01,-8.69 -8.12,-12.53zM40.79,65.37c2.56,1.66 5.38,2.99 8.46,3.97c0.31,-0.7 0.74,-1.32 1.36,-1.8c1.86,-1.44 7.31,-1.3 8.99,0.09c1.41,1.17 1.43,3.85 0.39,5.25c-1.8,2.42 -8.34,1.14 -12.25,0.08c0.59,0.51 1.21,0.99 1.86,1.43c2.26,1.51 5,2.53 8.62,2.53c3.92,0.01 6.79,-1.05 9.12,-2.64c0.43,-0.3 0.85,-0.61 1.26,-0.95c0.13,-0.22 0.33,-0.4 0.58,-0.5c1.6,-1.42 2.99,-3.08 4.37,-4.74l2.46,-2.95c0.3,-0.36 0.4,-0.48 0.51,-0.61c0.3,-0.35 0.64,-0.75 0.97,-1.16c0.09,-0.11 0.21,-0.21 0.35,-0.28c0.4,-1.3 0.7,-2.66 0.91,-4.09c0.7,-4.67 0.72,-8.3 -1.38,-12.6c-1.82,-3.71 -4.38,-5.64 -7.17,-7.02c3.01,3.36 5.5,6.62 4.85,9.3c-3.68,-4.04 -7.47,-7.57 -11.4,-10.48c-8.21,-4.24 -13.04,-9.99 -15.19,-16.95c-12.17,12.15 -14.29,26.37 -9.78,41.84c0.16,0.07 0.3,0.17 0.4,0.29l1.71,1.99zM42.86,71.17c-3.04,-1.52 -5.9,-3.76 -8.6,-5.99l-4.94,0.13c-0.68,-0.78 -1.25,-1.68 -1.73,-2.69c-0.39,-0.04 -0.78,-0.12 -1.16,-0.24c-4.75,-1.49 -8.69,-12.05 -7.91,-17.03c0.44,-2.82 1.44,-3.84 3.06,-4.46c-0.08,-0.23 -0.12,-0.47 -0.12,-0.73v-10.63c0,-4 1.2,-7.93 3.15,-11.49c2.13,-3.91 5.17,-7.4 8.49,-10.04c6.78,-5.41 15.56,-8.09 24.29,-8c8.66,0.09 17.3,2.92 23.91,8.53c3.19,2.71 5.88,6.26 7.76,10.18c1.83,3.82 2.89,8 2.89,12.11v8.78c0,1.25 -1.01,2.26 -2.26,2.26c-0.72,0 -1.36,-0.33 -1.77,-0.86c1.11,8.34 0.07,16.92 -3.26,24.04h-5.63c-0.13,0.15 -0.25,0.3 -0.37,0.44l-0.5,0.59l-2.46,2.95c-1.43,1.72 -2.88,3.45 -4.59,4.96c0.9,1.18 3.9,3.75 6.56,6.04c0.86,0.74 1.7,1.46 2.43,2.1c7.29,2.84 14.41,5.75 19.94,9.21c4.27,2.67 6.47,4.69 8.2,7.93c2.73,5.12 4.88,10.8 5.52,17.54c0.57,6.03 0.52,5.76 -5.27,5.88c-30.52,0.61 -73.02,-0.51 -102.88,0c-5.43,0.09 -5.99,0.48 -5.42,-7.25c1.85,-8.77 0.8,-7.61 5.37,-16.17c1.73,-3.24 3.93,-5.25 8.2,-7.93c5.56,-3.49 12.72,-6.41 20.06,-9.26c0.9,-0.8 1.99,-1.73 3.14,-2.71c3.2,-2.72 6.87,-5.83 7.28,-6.75c-0.48,-0.46 -0.94,-0.94 -1.38,-1.44zM87.42,38.05v-7.22c0,-3.44 -0.89,-6.96 -2.43,-10.17c-1.6,-3.35 -3.9,-6.37 -6.61,-8.68c-5.79,-4.92 -13.39,-7.4 -21.04,-7.48c-7.74,-0.08 -15.5,2.28 -21.45,7.03c-2.88,2.3 -5.51,5.3 -7.34,8.67c-1.6,2.93 -2.58,6.12 -2.58,9.34v9.09c2.45,-11.79 7.45,-20.38 15.22,-25.51c5.72,-3.78 9.13,-3.99 15.8,-3.99c5.83,0 9.4,-0.13 14.37,3.14c8.58,5.64 14.02,15.36 16.06,25.78zM49.73,104.51l4.21,-14.6l-2.06,-2.26c-0.93,-1.36 -1.13,-2.54 -0.62,-3.56c1.12,-2.21 3.43,-1.8 5.59,-1.8c2.26,0 5.05,-0.43 5.76,2.4c0.24,0.95 -0.06,1.94 -0.72,2.96l-2.06,2.26l4.21,14.6l-7.15,5.65l-7.16,-5.65z"></path></g></g></g></svg>