<svg version="1.1" xmlns="http://www.w3.org/2000/svg" xmlns:xlink="http://www.w3.org/1999/xlink" width="122.88px" height="98.62px" viewBox="0,0,256,205.45313"><g fill="#722f37" fill-rule="evenodd" stroke="none" stroke-width="1" stroke-linecap="butt" stroke-linejoin="miter" stroke-miterlimit="10" stroke-dasharray="" stroke-dashoffset="0" font-family="none" font-weight="none" font-size="none" text-anchor="none" style="mix-blend-mode: normal"><g transform="translate(0.02341,0.01425) scale(2.08333,2.08333)"><path d="M30.22,55.25l-0.11,7h12.54c2.63441,0.00499 4.78102,2.11604 4.83,4.75v4.83v0v18.9c-0.01096,2.66298 -2.16702,4.81904 -4.83,4.83h-4.88v-22c0,-2 0.38,-1.75 -1.54,-1.75h-12.42v0h-6.19c-4.00276,-0.01644 -7.24356,-3.25724 -7.26,-7.26v-23.76c0.00549,-4.07521 3.30481,-7.37899 7.38,-7.39h3.65c5.79,0 6.37,2.77 7.85,5.67l6.17,2.43c4.46,2 3.32,2.41 6.35,-1.34l3.94,-4.89c1.93,-3.08 9.56,0.14 6.29,5.31l-5.72,7.81c-2.39,3.26 -5.55,3.72 -9.38,2.12l-6.67,-2.35zM57.57,31.38c4.39967,4.29289 10.99492,5.41929 16.57,2.83l5.13,2l-1.7,-4c5.7,-4.57 4.68,-10.85 0.48,-15.13c-0.27968,1.63019 -0.83065,3.20197 -1.63,4.65c-1.17984,2.10084 -2.7879,3.93036 -4.72,5.37c-1.98202,1.49403 -4.21321,2.62486 -6.59,3.34c-2.44318,0.73675 -4.98924,1.07442 -7.54,1zM65.45,12.14c1.23159,0 2.23,0.99841 2.23,2.23c0,1.23159 -0.99841,2.23 -2.23,2.23c-1.23159,0 -2.23,-0.99841 -2.23,-2.23c0,-1.23159 0.99841,-2.23 2.23,-2.23zM50.7,12.14c1.23159,0 2.23,0.99841 2.23,2.23c0,1.23159 -0.99841,2.23 -2.23,2.23c-1.23159,0 -2.23,-0.99841 -2.23,-2.23c0,-1.23159 0.99841,-2.23 2.23,-2.23zM58.08,12.14c1.23159,0 2.23,0.99841 2.23,2.23c0,1.23159 -0.99841,2.23 -2.23,2.23c-1.23159,0 -2.23,-0.99841 -2.23,-2.23c0,-1.23159 0.99841,-2.23 2.23,-2.23zM58.52,0v0c4.48777,0.07821 8.81655,1.67506 12.28,4.53c3.14276,2.53051 4.96121,6.35516 4.94,10.39v0c-0.21164,4.04512 -2.25924,7.77206 -5.56,10.12c-3.63175,2.64384 -8.05185,3.97974 -12.54,3.79c-1.31169,-0.03643 -2.61721,-0.19376 -3.9,-0.47c-1.13715,-0.23514 -2.25144,-0.56976 -3.33,-1l-7.67,3l2.56,-6.1c-1.46696,-1.24484 -2.67341,-2.76735 -3.55,-4.48c-0.92705,-1.82189 -1.38423,-3.84653 -1.33,-5.89c0.22095,-4.03916 2.27627,-7.75569 5.58,-10.09c3.62194,-2.6416 8.03073,-3.98081 12.51,-3.8zM58.47,1.87v0c-4.06552,-0.1736 -8.0699,1.03547 -11.36,3.43c-2.85258,2.0103 -4.62833,5.21549 -4.82,8.7c-0.04332,1.7357 0.34859,3.45462 1.14,5c0.86948,1.66605 2.08699,3.1257 3.57,4.28l0.56,0.44l-1.37,3.28l4.24,-1.66l0.35,0.15c1.08127,0.45428 2.20288,0.80583 3.35,1.05c1.17091,0.25408 2.36246,0.40135 3.56,0.44c4.06317,0.17938 8.06733,-1.02257 11.36,-3.41c2.83552,-2.00167 4.60576,-5.18516 4.81,-8.65v0c0.00955,-3.47073 -1.56667,-6.75576 -4.28,-8.92c-3.13489,-2.57133 -7.04609,-4.00896 -11.1,-4.08zM118.91,91c-0.03943,-0.30701 -0.1802,-0.59207 -0.4,-0.81c-1.7615,-1.75079 -3.87008,-3.11336 -6.19,-4c-1.74702,-0.67286 -3.57688,-1.10677 -5.44,-1.29l0.37,-5.75h13.1c1.37128,-0.00551 2.48001,-1.11871 2.48,-2.49c0,-10.27 -2.42,-18 0,-29.7c0.72,-3.47 -6.44,-4 -6.44,0.18v26.38h-24.77c-1.36,0 -2.48,1.82 -2.48,3.18v1.94c0,0.30376 0.24624,0.55 0.55,0.55h13.14l0.51,5.69c-1.97045,0.12479 -3.91319,0.52882 -5.77,1.2c-2.21348,0.80177 -4.25092,2.02424 -6,3.6c-0.38254,0.35227 -0.54012,0.88651 -0.41,1.39c-0.72188,0.44815 -1.1314,1.26333 -1.06,2.11c0,1.45803 1.18197,2.64 2.64,2.64c1.45803,0 2.64,-1.18197 2.64,-2.64c0.06884,-0.85384 -0.34883,-1.67371 -1.08,-2.12c1.28752,-0.99197 2.72127,-1.77801 4.25,-2.33c1.77949,-0.64227 3.6491,-1 5.54,-1.06l0.29,2.85v0.12c-1.16331,0.28332 -1.96874,1.34331 -1.93,2.54c-0.06041,0.98013 0.42819,1.9128 1.26837,2.42115c0.84018,0.50834 1.89308,0.50834 2.73326,0c0.84018,-0.50834 1.32878,-1.44101 1.26837,-2.42115c0.0438,-1.18955 -0.75396,-2.24626 -1.91,-2.53v-0.14l0.19,-2.81c1.80973,0.10891 3.59128,0.50031 5.28,1.16v0c1.52847,0.58164 2.95336,1.40551 4.22,2.44c-0.56878,0.44937 -0.86708,1.15924 -0.79,1.88c0.12119,1.40477 1.23523,2.51881 2.64,2.64c1.41996,-0.09187 2.55276,-1.22039 2.65,-2.64c0.07265,-0.86498 -0.35434,-1.69565 -1.1,-2.14zM97.78,10.6c-5.57808,0 -10.1,4.52192 -10.1,10.1c0,5.57808 4.52192,10.1 10.1,10.1c5.57808,0 10.1,-4.52192 10.1,-10.1c0,-5.57808 -4.52192,-10.1 -10.1,-10.1zM93.58,50.22l0.19,12h-12.54c-2.6459,0.00526 -4.7972,2.13429 -4.83,4.78v4.83h0.06v18.9c0.00548,2.66136 2.15865,4.81901 4.82,4.83h4.83v-22.32c0,-2.12 0.8,-1.39 3.19,-1.39h10.78v0h6.19c4.00276,-0.01644 7.24356,-3.25724 7.26,-7.26v-25.22c-0.01647,-4.0674 -3.31259,-7.35904 -7.38,-7.37h-3.66c-7.6,0 -6.39,5.24 -9.76,8.53c-3.37,3.29 -2.48,3.62 -7,3.62h-9.81c-4.39,-0.09 -5.23,8 1,7.63h9c4,0 4.34,0.64 7.64,-1.55zM80.45,53.33h-35.45c-0.23748,0 -0.43,0.19252 -0.43,0.43v6.15c0.00529,0.23526 0.19474,0.42471 0.43,0.43h13.64v37.66c0.00534,0.31256 0.25744,0.56466 0.57,0.57h6.51c0.31089,-0.00546 0.56005,-0.25906 0.56,-0.57v-37.66h14.17c0.23748,0 0.43,-0.19252 0.43,-0.43v-6.15c0,-0.23748 -0.19252,-0.43 -0.43,-0.43zM1.34,48.44h3.52c0.70091,0.04345 1.26118,0.59944 1.31,1.3c1.34583,8.3188 2.01469,16.73305 2,25.16h24.09c0.95708,-0.00002 1.7345,0.77293 1.74,1.73v3.49h-1.39v17.88c-0.00545,0.2888 -0.24115,0.52005 -0.53,0.52h-4.61c-0.28885,0.00005 -0.52455,-0.2312 -0.53,-0.52v-7.79h-19.71c-0.29,2.37 -0.64,4.73 -1.06,7.1c-0.05246,0.70061 -0.60939,1.25754 -1.31,1.31h-3.52c-0.72,0 -1.51,-0.62 -1.34,-1.31c4.67,-16.15 3.7,-31.95 0,-47.57c-0.16,-0.69 0.59,-1.3 1.31,-1.3zM26.94,87.8v-7.68h-18.83c-0.11,3.27 -0.33,4.42 -0.68,7.68zM21.17,10.24c4.09002,-0.00405 7.77956,2.45661 9.34755,6.23414c1.56799,3.77753 0.70549,8.12766 -2.18516,11.02117c-2.89065,2.89351 -7.23993,3.76032 -11.019,2.19607c-3.77908,-1.56425 -6.24338,-5.25135 -6.24338,-9.34137c0,-5.5797 4.52031,-10.10448 10.1,-10.11z"></path></g></g></svg>